<?xml version="1.0" encoding="utf-8"?>
<!-- Generator: Adobe Illustrator 22.0.1, SVG Export Plug-In . SVG Version: 6.00 Build 0)  -->
<svg version="1.1" id="Layer_1" xmlns="http://www.w3.org/2000/svg" xmlns:xlink="http://www.w3.org/1999/xlink" x="0px" y="0px"
	 viewBox="0 0 348.8 90.7" style="enable-background:new 0 0 348.8 90.7;" xml:space="preserve">
<style type="text/css">
	.st0{fill:#9164CC;}
	.st1{clip-path:url(#SVGID_2_);fill:url(#SVGID_3_);}
	.st2{fill:#FFFFFF;}
	.st3{fill:#201747;}
	.st4{fill-rule:evenodd;clip-rule:evenodd;fill:#10CFC9;}
</style>
<g>
	<path class="st0" d="M130.9,46.6V30.9h-11.4v15.8h-8V11.1c0-0.9,0.2-1.6,0.7-2.2c0.5-0.6,1.1-1.1,1.7-1.4L125,1.5
		c0.6-0.3,1.2-0.4,1.8-0.4c0.8,0,1.4,0.1,1.9,0.4l8.5,5.6c0.5,0.3,1,0.8,1.3,1.4c0.3,0.6,0.5,1.2,0.5,1.9v36.3H130.9z M130.9,11.9
		l-4.2-2.7l-7.2,3.7v10.5h11.4V11.9z"/>
	<path class="st0" d="M168.7,46.6l-0.5-17l-7.7-5.6l-2.7,3.3v19.2h-8V2.2h8v15l10.1-13.6c0.8-1,1.8-1.4,3.1-1.4h5.4l-0.1,7.4h-4
		l-6.7,8.8l8.5,5.4c0.8,0.6,1.4,1.3,1.7,2c0.3,0.7,0.4,1.5,0.4,2.4l0.5,18.5H168.7z"/>
	<path class="st0" d="M205.3,46.6l-0.3-9.4l-7.5-9l2.4,1l-6.1,1.4l1.5-2.5v18.5h-8V2.5L209,2.2c0.7,0,1.4,0.1,1.9,0.4
		c0.5,0.3,0.9,0.6,1.2,1.1c0.3,0.4,0.6,0.9,0.7,1.3c0.1,0.5,0.2,0.9,0.2,1.2v16.7c0,0.7-0.3,1.5-1,2.4c-0.6,0.9-1.7,1.5-3.1,1.8
		l-3.2,0.7l0.3-0.9l4.6,4.9c1,1.1,1.6,2.5,1.7,4l0.3,10.9H205.3z M205,9.4h-9.7v14.2l9.7-2.3V9.4z"/>
	<path class="st0" d="M243.2,46.6V30.9h-11.4v15.8h-8V11.1c0-0.9,0.2-1.6,0.7-2.2c0.5-0.6,1.1-1.1,1.7-1.4l11.2-5.9
		c0.6-0.3,1.2-0.4,1.8-0.4c0.8,0,1.4,0.1,1.9,0.4l8.5,5.6c0.5,0.3,1,0.8,1.3,1.4c0.3,0.6,0.5,1.2,0.5,1.9v36.3H243.2z M243.2,11.9
		L239,9.2l-7.2,3.7v10.5h11.4V11.9z"/>
	<rect x="262.1" y="2.2" class="st0" width="8" height="44.5"/>
	<path class="st0" d="M289.1,6.8h0.3l4.7-3.2c1.4-1,2.9-1.4,4.5-1.4h5.3c0.7,0,1.4,0.1,1.9,0.4c0.5,0.3,0.9,0.6,1.2,1.1
		c0.3,0.4,0.6,0.9,0.7,1.3c0.1,0.5,0.2,0.9,0.2,1.2v40.4h-8V9.4h-2.6l-8.1,5v32.3h-8V2.2h8V6.8z"/>
	<path class="st0" d="M346.3,37.7c0,0.9-0.2,1.6-0.7,2.2c-0.5,0.6-1.1,1.1-1.7,1.4l-11.2,5.9c-0.6,0.3-1.2,0.4-1.8,0.4
		c-0.8,0-1.4-0.1-1.9-0.4l-8.5-5.5c-0.5-0.3-1-0.8-1.3-1.4c-0.3-0.6-0.5-1.2-0.5-1.9V6.2c0-0.4,0.1-0.8,0.2-1.2
		c0.1-0.5,0.4-0.9,0.7-1.3c0.3-0.4,0.7-0.8,1.2-1.1c0.5-0.3,1.1-0.4,1.9-0.4h19.4c0.7,0,1.4,0.1,1.9,0.4c0.5,0.3,0.9,0.6,1.2,1.1
		c0.3,0.4,0.6,0.9,0.7,1.3c0.1,0.5,0.2,0.9,0.2,1.2V37.7z M338.2,36.2V9.4h-11.4v27.9L331,40L338.2,36.2z"/>
	<g>
		<defs>
			<path id="SVGID_1_" d="M111.2,41.1c0,0.1,0.1,0.1,0.1,0.2c-0.1-0.1-0.1-0.3-0.2-0.4C111.1,41,111.2,41.1,111.2,41.1"/>
		</defs>
		<clipPath id="SVGID_2_">
			<use xlink:href="#SVGID_1_"  style="overflow:visible;"/>
		</clipPath>
		
			<linearGradient id="SVGID_3_" gradientUnits="userSpaceOnUse" x1="-130.1187" y1="-283.9795" x2="-129.1187" y2="-283.9795" gradientTransform="matrix(0.2193 0 0 -0.2193 139.6418 -21.1523)">
			<stop  offset="0" style="stop-color:#49BCEC"/>
			<stop  offset="0.2872" style="stop-color:#42B6E8"/>
			<stop  offset="0.7134" style="stop-color:#2EA7DE"/>
			<stop  offset="1" style="stop-color:#149BD6"/>
		</linearGradient>
		<rect x="111.1" y="40.9" class="st1" width="0.2" height="0.4"/>
	</g>
	<path class="st2" d="M111.1,40.9c0,0.1,0.1,0.1,0.1,0.2c0,0.1,0.1,0.1,0.1,0.2C111.3,41.2,111.2,41.1,111.1,40.9"/>
	<path class="st3" d="M112.2,85.9V56.5h17.1V62H118v7h10.4v5.5H118v8.9h11.3v5.5h-14.2c-0.5,0-1-0.1-1.4-0.3
		c-0.4-0.2-0.7-0.5-0.9-0.8c-0.2-0.3-0.4-0.6-0.5-1C112.2,86.5,112.2,86.2,112.2,85.9"/>
	<path class="st3" d="M136.5,88.8V56.7l17.3-0.2c0.9,0,1.6,0.3,2.1,0.8s0.7,1.1,0.7,1.7v25.3c0,0.5-0.1,1-0.3,1.4
		c-0.2,0.4-0.5,0.8-0.9,1l-4,2.4c-0.4,0.3-1.1,0.4-2,0.4c-0.2,0-0.5,0-0.8-0.1l-6.9-2.1l-0.5,1.4H136.5z M149,84.5l1.8-1.1V61.7
		h-8.4v21.2L149,84.5z"/>
	<path class="st3" d="M164.2,82.9V59.4c0-0.3,0.1-0.6,0.2-0.9c0.1-0.3,0.3-0.7,0.5-1c0.2-0.3,0.5-0.6,0.9-0.8
		c0.4-0.2,0.8-0.3,1.4-0.3h16.4l-0.5,9.2h-5.3v-4h-7.8V82l3,2l4.8-2.7v-7.2h-4.5V69h10.4v13.3c-0.1,1.2-0.6,2-1.5,2.5l-7.9,4.5
		c-0.5,0.2-0.9,0.3-1.3,0.3c-0.6,0-1-0.1-1.4-0.3l-6.2-4c-0.4-0.2-0.7-0.6-0.9-1C164.3,83.9,164.2,83.4,164.2,82.9"/>
	<path class="st3" d="M191.5,85.9V56.5h17.1V62h-11.3v7h10.4v5.5h-10.4v8.9h11.3v5.5h-14.2c-0.5,0-1-0.1-1.4-0.3
		c-0.4-0.2-0.7-0.5-0.9-0.8c-0.2-0.3-0.4-0.6-0.5-1C191.5,86.5,191.5,86.2,191.5,85.9"/>
	<path class="st3" d="M237.1,66.1v-4.4h-6.5v3.4c0,0.7,0.3,1.4,1,1.9l9.5,4.9c0.7,0.4,1.2,0.9,1.6,1.6c0.4,0.7,0.6,1.5,0.6,2.4v6.4
		c0,0.6-0.2,1.2-0.5,1.6c-0.4,0.5-0.8,0.8-1.2,1l-7.6,4.3c-0.5,0.2-0.9,0.3-1.3,0.3c-0.6,0-1-0.1-1.4-0.3l-6.2-4
		c-0.4-0.2-0.7-0.6-0.9-1c-0.2-0.4-0.3-0.9-0.3-1.4v-7.2h5.9V82l3,2l4.8-2.7v-3.2c0-0.5-0.1-1-0.4-1.4c-0.3-0.4-0.6-0.8-1-1.1
		L227,71c-0.9-0.4-1.5-1-1.8-1.8c-0.3-0.8-0.5-1.5-0.5-2.2v-7.6c0-0.3,0.1-0.6,0.2-0.9c0.1-0.3,0.3-0.7,0.5-1
		c0.2-0.3,0.5-0.6,0.9-0.8c0.4-0.2,0.8-0.3,1.4-0.3H240c0.5,0,1,0.1,1.4,0.3c0.4,0.2,0.7,0.5,0.9,0.8c0.2,0.3,0.4,0.6,0.5,1
		c0.1,0.3,0.2,0.6,0.2,0.9v6.7H237.1z"/>
	<polygon class="st3" points="255.6,88.8 255.6,61.9 248.9,61.9 248.9,56.5 268.1,56.5 268.1,61.9 261.4,61.9 261.4,88.8 	"/>
	<path class="st3" d="M287.8,88.8V77.4h-8.3v11.5h-5.9V63c0-0.6,0.2-1.2,0.5-1.6c0.4-0.5,0.8-0.8,1.2-1l8.1-4.3
		c0.5-0.2,0.9-0.3,1.3-0.3c0.6,0,1,0.1,1.4,0.3l6.2,4c0.4,0.2,0.7,0.6,0.9,1c0.2,0.4,0.3,0.9,0.3,1.4v26.4H287.8z M287.8,63.5l-3-2
		l-5.3,2.7v7.7h8.3V63.5z"/>
	<path class="st3" d="M313.6,66.1v-4.4h-6.3V82l3,2l6.5-3.7l2.8,4.3l-8.1,4.7c-0.5,0.2-0.9,0.3-1.3,0.3c-0.6,0-1-0.1-1.4-0.3l-6.2-4
		c-0.4-0.2-0.7-0.6-0.9-1c-0.2-0.4-0.3-0.9-0.3-1.4V59.4c0-0.3,0.1-0.6,0.2-0.9c0.1-0.3,0.3-0.7,0.5-1c0.2-0.3,0.5-0.6,0.9-0.8
		c0.4-0.2,0.8-0.3,1.4-0.3h14.9l-0.5,9.7H313.6z"/>
	<path class="st3" d="M340.4,88.8l-0.4-12.3l-5.6-4l-2,2.4v14h-5.9V56.5h5.9v10.9l7.4-9.9c0.6-0.7,1.3-1,2.2-1h3.9l0,5.4H343
		l-4.9,6.4l6.2,3.9c0.6,0.5,1,0.9,1.2,1.5c0.2,0.5,0.3,1.1,0.3,1.8l0.4,13.4H340.4z"/>
	<polygon class="st4" points="53.2,20.7 19.5,79 45.4,79 71.8,33.2 103.9,88.8 62.4,88.8 68,79 86.9,79 71.8,52.9 51,88.8 2.5,88.8 
		53.2,1.1 66.1,23.4 60.5,33.2 	"/>
</g>
</svg>
